<?xml version="1.0" encoding="utf-8"?>
<!-- Svg Vector Icons : http://www.onlinewebfonts.com/icon -->
<!DOCTYPE svg PUBLIC "-//W3C//DTD SVG 1.1//EN" "http://www.w3.org/Graphics/SVG/1.1/DTD/svg11.dtd">
<svg version="1.1" xmlns="http://www.w3.org/2000/svg" xmlns:xlink="http://www.w3.org/1999/xlink" x="0px" y="0px" viewBox="0 0 1000 1000" enable-background="new 0 0 1000 1000" xml:space="preserve">
<metadata> Svg Vector Icons : http://www.onlinewebfonts.com/icon </metadata>
<g><path d="M10,71.3v857.5h980V71.3H10L10,71.3z M377.5,622.5V438.8h245v183.8L377.5,622.5L377.5,622.5z M622.5,683.8v183.8h-245V683.8H622.5L622.5,683.8z M622.5,193.7v183.8h-245V193.7H622.5L622.5,193.7z M316.3,193.7v183.8h-245V193.7H316.3L316.3,193.7z M71.2,438.8h245v183.8h-245V438.8L71.2,438.8z M683.8,438.8h245v183.8h-245V438.8L683.8,438.8z M683.8,377.5V193.7h245v183.8H683.8L683.8,377.5z M71.2,683.8h245v183.8h-245V683.8L71.2,683.8z M683.8,867.5V683.8h245v183.8H683.8L683.8,867.5z"/></g>
</svg>