<?xml version="1.0" ?><svg id="Layer_1" style="enable-background:new 0 0 64 64;" version="1.1" viewBox="0 0 64 64" xml:space="preserve" xmlns="http://www.w3.org/2000/svg" xmlns:xlink="http://www.w3.org/1999/xlink"><g><path d="M31.237,6.325c-8.272,0.325-14.927,5.952-15.375,12.977h-1.171c-0.414,0-0.75,0.336-0.75,0.75   c0,0.414,0.336,0.75,0.75,0.75h34.591c0.414,0,0.75-0.336,0.75-0.75c0-0.414-0.336-0.75-0.75-0.75h-1.171   C47.663,12.277,41.009,6.65,32.737,6.325V5.127c0-0.094-0.022-0.183-0.054-0.266h1.258c0.414,0,0.75-0.336,0.75-0.75   c0-0.414-0.336-0.75-0.75-0.75h-3.909c-0.414,0-0.75,0.336-0.75,0.75c0,0.414,0.336,0.75,0.75,0.75h1.258   c-0.032,0.083-0.054,0.172-0.054,0.266V6.325z M34.551,10.806c0.067-0.268,0.34-0.429,0.607-0.362   c2.191,0.554,5.297,3.113,6.017,5.582c0.077,0.265-0.075,0.543-0.34,0.62c-0.047,0.014-0.094,0.02-0.14,0.02   c-0.217,0-0.417-0.142-0.48-0.36c-0.603-2.066-3.419-4.417-5.302-4.893C34.645,11.346,34.483,11.074,34.551,10.806z" style="fill:#4D4D4D;"/><path d="M59.337,44.478c0.003-0.022,0.013-0.042,0.013-0.065c-0.004-0.066-2.627-19.492-2.627-19.492   c0-1.698-1.47-3.08-3.278-3.08H10.332c-1.808,0-3.278,1.382-3.274,3.019L4.651,44.352c-0.004,0.091,0.008,0.116,0.013,0.144   c0.005,0.03,0.007,0.058,0.017,0.086c0.015,0.041,0.038,0.076,0.063,0.112c0.011,0.016,0.015,0.036,0.029,0.051   c0.046,0.046,0.089,0.073,0.134,0.099c0.102,0.054,0.169,0.07,0.241,0.07c1.529,0,2.283,0.492,3.082,1.013   c0.844,0.552,1.802,1.176,3.628,1.176c0.478,0,0.894-0.045,1.267-0.118v13.155c0,0.276,0.224,0.5,0.5,0.5h3.415   c0.276,0,0.5-0.224,0.5-0.5V45.001c0.302-0.056,0.64-0.088,1.029-0.088c1.529,0,2.283,0.492,3.082,1.013   c0.845,0.552,1.802,1.176,3.628,1.176c1.827,0,2.784-0.624,3.629-1.176c0.799-0.521,1.554-1.013,3.083-1.013   c1.528,0,2.282,0.492,3.081,1.013c0.845,0.551,1.802,1.176,3.628,1.176c1.827,0,2.785-0.624,3.63-1.176   c0.799-0.521,1.554-1.013,3.084-1.013c0.386,0,0.722,0.031,1.023,0.087v15.139c0,0.276,0.224,0.5,0.5,0.5h3.416   c0.276,0,0.5-0.224,0.5-0.5V46.981c0.376,0.075,0.796,0.121,1.28,0.121c1.828,0,2.787-0.624,3.632-1.175   c0.8-0.521,1.555-1.014,3.086-1.014c0.089-0.008,0.106-0.02,0.127-0.026c0.034-0.009,0.066-0.018,0.096-0.033   c0.029-0.014,0.053-0.033,0.077-0.052c0.026-0.02,0.05-0.039,0.071-0.063c0.021-0.024,0.036-0.05,0.053-0.078   c0.016-0.028,0.031-0.054,0.042-0.085C59.328,44.544,59.332,44.512,59.337,44.478z M19.345,39.931   c-0.016,0.265-0.236,0.47-0.499,0.47c-0.306-0.018-0.516-0.254-0.5-0.53l0.766-12.822c0.016-0.276,0.251-0.49,0.529-0.469   c0.276,0.017,0.486,0.253,0.469,0.529L19.345,39.931z M32.498,39.9c0,0.276-0.224,0.5-0.5,0.5c-0.276,0-0.5-0.224-0.5-0.5V27.078   c0-0.276,0.224-0.5,0.5-0.5c0.276,0,0.5,0.224,0.5,0.5V39.9z M45.181,40.399c-0.293,0.001-0.513-0.204-0.529-0.469l-0.766-12.823   c-0.017-0.275,0.193-0.512,0.469-0.529c0.278-0.018,0.513,0.193,0.529,0.469L45.65,39.87   C45.667,40.146,45.457,40.383,45.181,40.399z" style="fill:#4D4D4D;"/></g></svg>